<?xml version="1.0" standalone="no"?>
<!DOCTYPE svg PUBLIC "-//W3C//DTD SVG 20010904//EN"
 "http://www.w3.org/TR/2001/REC-SVG-20010904/DTD/svg10.dtd">
<svg version="1.0" xmlns="http://www.w3.org/2000/svg"
 width="1024.000000pt" height="1024.000000pt" viewBox="0 0 1024.000000 1024.000000"
 preserveAspectRatio="xMidYMid meet">

<g transform="translate(0.000000,1024.000000) scale(0.100000,-0.100000)"
fill="#ffffffff" stroke="none">
<path d="M5183 8876 l-28 -24 -6 -214 c-3 -117 -12 -241 -19 -275 -8 -35 -12
-65 -9 -67 2 -3 46 6 98 20 88 23 109 24 368 24 350 0 346 -2 347 150 1 36 0
132 -2 213 -2 142 -3 149 -27 172 l-24 25 -335 0 -335 0 -28 -24z m649 -96 c7
-46 -3 -53 -73 -51 -77 2 -99 -5 -99 -29 0 -28 18 -35 100 -36 l75 -2 3 -68
c2 -37 1 -87 -3 -111 l-6 -43 -290 0 -289 0 0 178 c0 98 3 182 7 185 3 4 133
7 289 7 l282 0 4 -30z"/>
<path d="M5373 8723 c-7 -3 -13 -16 -13 -29 0 -23 3 -24 73 -24 39 0 89 -3
109 -6 33 -6 39 -4 47 17 5 13 6 27 2 31 -7 7 -201 18 -218 11z"/>
<path d="M5388 8569 c-10 -5 -18 -17 -18 -24 0 -12 14 -15 60 -15 52 0 60 2
60 19 0 28 -66 41 -102 20z"/>
<path d="M5598 8573 c-19 -3 -28 -10 -28 -24 0 -17 8 -19 74 -19 56 0 75 4 79
15 4 8 2 17 -3 20 -13 8 -92 14 -122 8z"/>
<path d="M6977 8894 c-4 -4 -4 -40 0 -80 l6 -73 -99 -3 -99 -3 -3 -60 c-4
-111 2 -105 -112 -105 -135 0 -131 7 -128 -226 l3 -179 133 -3 132 -3 69 -53
c122 -93 105 -96 281 41 83 65 170 131 191 146 38 27 57 65 44 86 -10 17 -45
13 -72 -9 -14 -11 -29 -17 -34 -14 -5 3 -9 86 -9 185 l0 180 31 38 c22 28 30
47 27 67 -5 43 -29 37 -98 -25 l-61 -53 -27 23 c-15 13 -53 48 -84 76 -53 50
-76 62 -91 47z m172 -238 c30 -31 42 -50 39 -66 -4 -33 -19 -34 -56 -3 -25 21
-35 39 -39 71 -3 23 -1 42 4 42 5 0 28 -20 52 -44z m-135 -25 c8 -13 -5 -72
-14 -66 -5 3 -11 -3 -13 -12 -4 -14 -5 -13 -6 5 0 12 -6 22 -12 22 -5 0 -8 -4
-5 -9 3 -5 -2 -8 -12 -7 -13 1 -18 -9 -21 -44 l-5 -45 -6 45 c-6 41 -7 38 -8
-27 -2 -72 -14 -95 -26 -50 -8 30 -8 182 1 190 10 10 121 8 127 -2z m-7 -123
c-3 -8 -6 -5 -6 6 -1 11 2 17 5 13 3 -3 4 -12 1 -19z m180 -143 c-2 -68 -3
-71 -39 -104 l-38 -33 0 126 0 127 39 -23 39 -22 -1 -71z m-404 82 c-4 -19
-10 -22 -37 -19 l-33 4 -2 -58 c-1 -32 -7 -65 -14 -72 -9 -11 -7 -17 8 -28 17
-13 15 -14 -23 -14 l-42 0 0 105 0 105 74 0 c71 0 73 -1 69 -23z m-26 -33 c-3
-3 -12 -4 -19 -1 -8 3 -5 6 6 6 11 1 17 -2 13 -5z m254 -179 c-1 -44 -5 -82
-7 -84 -2 -2 -24 9 -49 23 -46 27 -59 55 -27 57 11 1 8 4 -8 8 -20 5 -26 14
-28 44 l-3 38 63 -3 63 -3 -4 -80z"/>
<path d="M2797 8743 c-8 -13 -12 -701 -5 -709 4 -4 113 -8 242 -9 193 -1 236
1 241 13 3 7 5 38 5 68 l0 54 159 0 c154 0 160 1 175 22 20 28 20 33 0 52 -13
13 -43 16 -173 16 l-158 0 -7 145 c-4 79 -7 186 -6 237 1 51 1 99 1 106 -2 21
-35 13 -74 -19 -29 -24 -37 -37 -37 -64 0 -29 -4 -34 -30 -40 -17 -4 -75 -3
-130 0 l-100 8 0 31 c0 35 -12 54 -50 80 -26 17 -46 21 -53 9z m353 -255 c0
-18 -4 -38 -8 -44 -4 -7 -51 -11 -124 -11 l-116 -1 -4 40 c-2 21 -2 41 1 44 2
2 60 4 128 4 l123 0 0 -32z m-13 -178 c-2 -21 1 -44 7 -50 13 -13 20 -12 -114
-19 l-115 -6 -6 -50 c-4 -36 -6 -21 -7 58 l-2 107 121 0 120 0 -4 -40z"/>
<path d="M4386 8618 c-8 -13 -17 -39 -21 -58 -12 -57 -22 -67 -88 -89 -141
-47 -144 -83 -11 -121 37 -11 72 -24 77 -29 5 -5 13 -28 18 -52 28 -122 101
-121 123 2 8 46 15 51 99 79 64 21 97 41 97 60 0 20 -46 50 -104 67 -64 20
-66 22 -105 116 -16 38 -24 47 -45 47 -16 0 -31 -9 -40 -22z m74 -212 c0 -9
-39 -51 -43 -45 -1 2 -10 14 -20 25 -17 21 -17 22 5 47 l22 25 18 -23 c10 -13
18 -26 18 -29z"/>
<path d="M6450 8074 c-13 -32 -13 -51 0 -75 11 -19 45 -25 67 -11 18 11 25 55
14 85 -15 38 -67 39 -81 1z"/>
<path d="M3586 8035 c-9 -9 -16 -22 -16 -29 0 -32 27 -36 200 -34 152 3 174 5
184 21 8 12 8 22 0 35 -10 15 -32 17 -182 20 -145 2 -172 0 -186 -13z"/>
<path d="M6372 8012 c-27 -4 -42 -37 -42 -93 l0 -39 -1899 0 c-1242 0 -1917
-4 -1952 -10 -166 -31 -316 -156 -381 -319 l-23 -56 -5 -1965 -5 -1965 -103
-2 c-107 -2 -188 -20 -233 -50 -88 -60 -157 -149 -185 -238 l-18 -55 -146 0
c-100 0 -150 -4 -158 -12 -9 -9 -12 -166 -12 -644 0 -567 -2 -632 -16 -638 -9
-3 -87 -6 -173 -6 -140 0 -160 -2 -174 -18 -10 -10 -17 -28 -17 -39 0 -50 -99
-48 1889 -51 l1856 -3 56 -49 c116 -101 86 -95 479 -95 395 0 383 -2 492 95
l56 50 1700 0 c1053 0 1710 4 1726 10 63 24 49 100 -19 100 -18 0 -37 5 -41
11 -4 7 -6 290 -5 630 2 434 -1 624 -9 638 -10 20 -20 21 -159 21 -157 0 -161
1 -161 48 0 33 -50 123 -94 170 -84 90 -198 130 -373 132 l-53 0 0 1334 0
1333 142 7 c115 6 159 4 230 -10 172 -33 326 12 442 131 203 205 204 507 3
708 -244 243 -671 150 -798 -173 -18 -45 -18 -43 -19 240 0 317 -7 369 -62
474 -39 74 -134 171 -207 210 -104 56 -100 56 -808 56 l-653 0 0 46 c0 71 -19
94 -68 86z m1376 -534 l-3 -293 -657 -3 -658 -2 0 295 0 295 660 0 660 0 -2
-292z m-1428 219 c0 -35 -3 -112 -7 -170 l-6 -107 -641 0 -641 0 -2 77 c-1 42
-4 87 -8 100 -7 30 -50 41 -84 22 -25 -14 -26 -20 -29 -107 l-3 -92 -1162 -2
-1162 -3 -40 -21 c-51 -27 -89 -65 -109 -108 -14 -31 -16 -186 -16 -1580 l0
-1546 -39 0 c-65 0 -71 -6 -71 -65 0 -49 2 -54 38 -79 62 -43 67 -60 66 -228
-1 -142 -2 -149 -25 -174 -33 -36 -79 -54 -139 -54 l-50 0 0 1935 c0 1393 3
1949 11 1987 20 94 73 169 156 221 93 59 -33 56 2051 56 l1912 1 0 -63z m1635
-62 c40 -49 59 -86 73 -145 8 -32 11 -580 12 -1850 1 -993 1 -1865 1 -1937
l-1 -133 -47 0 -48 0 3 217 c2 134 -1 220 -7 226 -7 7 -7 16 0 29 6 10 9 40 7
66 l-3 47 -52 3 -53 3 0 1123 0 1123 51 5 c58 6 72 20 64 63 -7 37 -19 45 -72
45 l-43 0 0 183 0 182 56 54 55 54 -3 266 c-3 288 -5 297 -62 350 -19 18 -26
34 -26 63 l0 39 31 -18 c17 -10 46 -36 64 -58z m-3061 -387 c12 -107 32 -96
-183 -100 -104 -2 -192 -5 -194 -8 -6 -5 -12 -455 -9 -612 l2 -98 148 0 c81 0
184 -3 230 -7 l82 -6 0 -126 0 -126 -50 3 -50 4 0 -206 0 -206 -170 0 -170 0
0 273 c0 149 -3 281 -6 292 -5 20 -11 20 -407 15 l-402 -5 -3 -317 c-2 -274
-4 -318 -17 -318 -9 0 -15 9 -15 23 -1 12 -2 123 -3 247 l-2 225 -459 3 c-476
2 -486 2 -486 -39 0 -34 33 -39 250 -39 l212 0 -6 -52 c-3 -29 -5 -54 -6 -55
0 -2 -78 -3 -174 -3 -146 0 -176 -2 -187 -16 -9 -11 -10 -20 -2 -32 9 -15 35
-17 184 -20 95 -1 177 -6 182 -11 4 -4 5 -58 1 -119 l-7 -111 -96 -3 -96 -3
-3 -767 -2 -767 -225 -1 -225 -1 2 1536 3 1537 37 34 38 34 1138 0 1139 0 7
-52z m1355 30 c-1 -17 -2 -19 -6 -5 -3 13 -14 17 -46 16 -40 -1 -40 -2 -12 -9
17 -4 28 -9 25 -10 -3 -2 -95 -6 -205 -10 -136 -4 -192 -9 -175 -15 l25 -9
-30 -7 c-16 -4 74 -7 200 -6 151 0 233 4 237 11 5 7 8 6 8 -3 0 -11 4 -9 15 5
17 23 19 38 3 28 -8 -5 -9 -2 -5 10 4 10 7 20 7 22 0 2 4 4 9 4 5 0 10 -48 13
-106 3 -102 5 -107 31 -130 16 -13 38 -24 50 -24 15 -1 32 -17 57 -55 l35 -55
352 0 352 0 36 -60 37 -61 218 3 c160 2 220 0 229 -9 7 -8 10 -58 9 -150 l-3
-138 -234 -3 c-152 -1 -239 -6 -248 -13 -16 -14 -17 -53 0 -67 7 -6 96 -11
222 -13 116 -1 221 -4 235 -6 l25 -4 -3 -1042 c-1 -573 -2 -1079 -2 -1124 l0
-82 -215 -1 -215 -1 -2 638 -3 638 -103 3 -103 3 1 267 c1 147 1 273 1 279 -1
10 -67 13 -278 15 l-278 3 -5 245 -5 245 -342 -4 -343 -3 -2 213 -3 214 -397
3 -398 2 0 129 c0 70 3 156 6 190 l7 61 608 0 609 0 -1 -22z m31 12 c0 -5 -4
-10 -10 -10 -5 0 -10 5 -10 10 0 6 5 10 10 10 6 0 10 -4 10 -10z m2516 -211
c92 -38 164 -104 202 -186 23 -49 27 -72 27 -143 0 -95 -14 -140 -71 -226 -75
-113 -232 -178 -373 -154 -39 6 -81 13 -95 14 -34 4 -90 41 -129 86 -195 228
-70 589 223 639 77 13 129 6 216 -30z m-3936 -91 c0 -5 0 -114 0 -243 l0 -235
-119 0 c-116 0 -120 1 -123 23 -2 12 -2 122 0 245 l3 223 119 -3 c66 -2 120
-6 120 -10z m683 -224 c12 -4 13 -12 6 -33 -6 -16 -8 -275 -7 -644 l3 -617
-207 0 c-113 0 -213 -3 -222 -6 -10 -4 -16 -18 -16 -35 0 -44 28 -50 244 -48
l191 1 3 -36 3 -37 -258 1 -258 1 -3 -40 c-2 -29 1 -41 10 -41 9 0 9 -3 -2
-10 -13 -8 -16 80 -20 763 -3 425 -4 775 -2 780 4 8 513 10 535 1z m2704 -334
c17 -25 40 -54 52 -64 11 -11 21 -22 21 -25 0 -3 -34 -7 -75 -9 l-75 -3 0 128
0 128 23 -55 c13 -31 37 -76 54 -100z m-2345 -472 l3 -383 188 -3 187 -2 0
385 0 386 38 -3 37 -4 7 -59 c4 -33 7 -356 6 -717 l0 -658 -279 0 -279 0 0
720 0 720 45 0 45 0 2 -382z m268 47 l0 -336 -82 3 -83 3 -1 333 -2 332 84 0
84 0 0 -335z m-1972 -77 l3 -268 -81 0 -80 0 0 270 0 271 78 -3 77 -3 3 -267z
m-262 130 c0 -73 0 -220 2 -325 l2 -193 165 0 165 0 0 -1305 0 -1304 -196 -3
c-108 -2 -198 -1 -200 1 -2 2 -4 737 -4 1633 l0 1628 34 0 34 0 -2 -132z
m-398 -180 l-3 -183 -101 -3 -102 -3 -5 28 c-3 15 -3 99 0 186 l6 157 104 0
103 0 -2 -182z m3388 -365 l0 -333 -93 0 -93 0 0 328 c0 181 3 332 7 336 4 4
46 5 93 4 l85 -3 1 -332z m-318 125 l-3 -203 -35 0 -35 0 -3 203 -2 202 40 0
40 0 -2 -202z m-1638 -263 l0 -235 -143 0 c-79 0 -178 -3 -220 -6 l-77 -7 0
242 0 241 220 0 220 0 0 -235z m-1339 189 l74 -7 -3 -288 -3 -289 -83 0 c-92
0 -113 -11 -102 -54 7 -29 30 -36 121 -36 l70 0 -3 -360 -2 -360 -278 0 -277
0 3 365 2 365 99 -1 c54 -1 104 2 110 5 15 10 14 51 -2 65 -9 6 -50 10 -105 9
-50 -1 -94 0 -97 3 -8 8 -8 566 0 579 7 11 356 14 476 4z m2977 -260 c12 -4
22 -11 21 -18 -1 -6 -1 -55 0 -109 l1 -97 203 2 202 3 3 113 3 112 39 0 40 0
0 -570 0 -570 -290 0 -290 0 0 473 c0 259 -3 509 -6 554 -4 45 -4 89 -1 97 7
17 35 20 75 10z m-1685 -243 l58 -1 -3 -147 -3 -148 -222 -3 -223 -2 0 153 0
154 168 -2 c92 -2 193 -3 225 -4z m667 -1 l55 -7 -45 -2 -45 -1 1 -1065 1
-1065 -199 0 -199 0 3 143 3 142 160 3 c88 1 166 5 173 7 15 6 16 57 0 73 -8
8 -62 12 -175 12 l-163 0 0 885 0 885 188 -1 c103 -1 212 -4 242 -9z m674
-239 l99 -6 4 -52 c3 -39 1 -53 -9 -53 -10 0 -10 -2 0 -9 12 -7 12 -12 1 -30
-8 -11 -17 -21 -22 -21 -4 0 -5 5 -2 10 3 6 1 10 -4 10 -6 0 -12 10 -12 23 -1
17 -3 15 -8 -8 l-6 -30 -245 0 -245 0 -3 74 c-2 41 -1 80 2 88 4 10 42 13 178
12 95 -1 217 -4 272 -8z m-1388 -252 c-3 -17 -6 -395 -6 -840 l-1 -809 -169 0
-170 0 0 840 0 840 176 0 177 0 -7 -31z m1494 -604 c0 -333 -4 -605 -8 -605
-4 0 -8 226 -8 503 1 276 -3 516 -7 532 -5 21 -5 26 3 15 7 -11 10 -5 10 25 0
62 -16 75 -24 19 -3 -26 -7 -65 -7 -88 l-2 -41 -6 40 c-13 75 -22 -448 -18
-947 l5 -498 -249 0 -249 0 0 825 0 825 280 0 280 0 0 -605z m-33 293 c-2 -13
-4 -3 -4 22 0 25 2 35 4 23 2 -13 2 -33 0 -45z m-2627 -438 l0 -180 -581 0
-581 0 6 23 c15 50 24 142 19 185 -5 38 -22 86 -51 145 -2 4 264 7 592 7 l596
0 0 -180z m4008 173 c-39 -76 -42 -91 -43 -198 0 -60 4 -120 8 -132 l8 -23
-570 0 c-314 0 -574 -1 -578 -2 -5 -2 -9 79 -11 180 l-2 182 596 0 c327 0 594
-3 592 -7z m-1381 -335 c-2 -35 -3 -7 -3 62 0 69 1 97 3 63 2 -35 2 -91 0
-125z m2 -220 c-2 -78 -2 -80 -9 -33 -12 72 -11 115 0 115 6 0 9 -33 9 -82z
m1329 22 l52 0 0 -189 c0 -193 5 -216 37 -189 14 11 15 35 9 195 l-6 183 55 0
55 0 -2 -260 -3 -260 -667 -2 -667 -3 -1 261 c0 143 2 263 5 265 2 3 246 4
542 2 296 -2 562 -4 591 -3z m-5205 -112 c-6 -176 -5 -173 -55 -172 l-43 1 -3
142 -3 141 54 0 53 0 -3 -112z m1243 20 c-3 -50 -6 -113 -6 -140 l0 -48 -95 0
-95 0 0 114 c0 106 -2 115 -20 121 -11 3 -23 4 -28 1 -4 -2 -9 -56 -11 -118
-1 -62 -3 -114 -5 -115 -1 -1 -211 -3 -467 -3 l-464 -1 -3 141 -3 140 602 0
602 0 -7 -92z m-1506 -17 l0 -89 -150 0 c-132 0 -156 -3 -193 -21 -33 -16 -63
-21 -125 -21 -45 0 -82 4 -82 8 0 15 57 97 86 123 79 71 137 86 337 88 l127 1
0 -89z m6182 64 c72 -25 164 -113 182 -172 7 -23 7 -23 -116 -23 -112 0 -124
2 -136 20 -11 18 -23 20 -147 20 l-135 0 0 91 0 91 153 -5 c107 -3 166 -10
199 -22z m-2025 -117 c-2 -13 -4 -5 -4 17 -1 22 1 32 4 23 2 -10 2 -28 0 -40z
m8 -256 c1 -95 0 -105 -5 -52 -10 86 -12 185 -3 177 3 -4 7 -60 8 -125z
m-4166 -114 c1 -88 4 -171 7 -182 3 -15 -5 -33 -27 -59 l-32 -37 -387 0 c-415
0 -406 1 -393 -49 4 -15 1 -21 -11 -21 -14 0 -16 27 -16 255 l0 255 429 0 429
0 1 -162z m1321 150 c0 -4 12 -8 28 -11 15 -2 2 -4 -28 -5 -68 -2 -123 8 -98
17 23 8 98 8 98 -1z m5368 -203 c-2 -118 -6 -215 -10 -215 -5 0 -178 0 -385 0
l-378 0 -40 38 -40 37 3 178 2 177 425 0 425 0 -2 -215z m-5639 200 c-9 -8
-739 -11 -739 -2 0 4 167 7 372 7 204 0 369 -2 367 -5z m139 -2 c-10 -2 -28
-2 -40 0 -13 2 -5 4 17 4 22 1 32 -1 23 -4z m832 -302 c282 -37 554 -130 728
-250 98 -68 112 -85 112 -141 0 -60 -7 -80 -29 -80 -10 0 -39 -11 -65 -24
l-48 -24 -51 39 c-115 87 -292 162 -470 199 -203 42 -226 43 -1139 47 -489 2
-888 7 -888 11 0 9 120 164 162 210 l30 34 786 -5 c494 -3 819 -9 872 -16z
m3472 -8 c38 -41 168 -207 168 -215 0 -5 -360 -8 -799 -8 -468 0 -853 -4 -928
-10 -341 -28 -616 -111 -780 -234 -58 -44 -58 -44 -93 -29 -19 8 -49 19 -65
24 l-31 9 4 67 c5 78 11 87 97 148 195 139 515 238 851 264 60 4 433 9 830 10
l720 1 26 -27z m-3762 -327 c241 -4 371 -21 547 -71 103 -30 248 -98 316 -150
46 -35 48 -38 30 -54 -51 -45 -48 -45 -110 -3 -32 22 -69 43 -83 47 -14 4
-137 12 -275 17 -283 10 -467 23 -395 28 l45 3 -45 7 -45 7 60 2 c42 2 54 5
40 11 -16 6 -10 9 25 12 25 3 -72 5 -215 6 -235 2 -695 -7 -1420 -27 -143 -4
-262 -6 -264 -4 -2 1 22 30 53 65 l56 63 -88 6 c-147 11 -792 10 -792 -1 0 -6
132 -10 375 -10 206 0 375 -3 375 -8 0 -4 -10 -13 -22 -21 -19 -12 -88 -14
-376 -12 l-353 2 5 -143 c3 -79 6 -145 6 -148 1 -3 8 9 16 25 l15 30 -6 -29
-6 -29 127 5 c113 5 125 3 108 -10 -18 -13 -17 -14 11 -9 17 3 37 2 45 -3 15
-9 -97 -18 -145 -11 -29 5 -28 5 10 11 29 5 12 8 -57 9 -78 1 -98 -2 -98 -13
0 -7 -9 -16 -20 -19 -15 -4 -20 -14 -20 -36 0 -17 -4 -31 -10 -31 -6 0 -10 89
-10 248 l0 248 1183 -3 c650 -2 1283 -5 1407 -7z m4958 -238 l-3 -253 -212 0
-213 0 0 126 c0 106 -3 128 -16 133 -9 3 -51 6 -95 6 l-80 0 -90 94 c-87 91
-91 94 -139 98 -28 1 -50 0 -50 -3 0 -10 55 -83 79 -103 21 -19 30 -43 12 -31
-10 6 -650 21 -1286 30 -231 3 -392 2 -380 -3 13 -6 -9 -8 -60 -6 -53 3 -73 1
-60 -5 17 -7 13 -10 -20 -13 -39 -5 -39 -5 9 -6 27 -1 47 -5 43 -8 -11 -12
-209 -25 -472 -32 l-260 -7 -55 -29 c-29 -16 -66 -37 -81 -49 l-28 -20 -30 24
c-16 13 -30 27 -30 31 -1 9 66 60 119 91 101 58 304 121 496 154 101 18 258
19 2462 31 l442 2 -2 -252z m-6848 119 c0 -2 -9 -12 -20 -22 -24 -21 -27 -14
-4 9 15 15 24 20 24 13z m3203 -171 c74 -38 156 -126 117 -126 -5 0 -10 4 -10
8 0 12 -75 50 -144 74 -93 32 -205 12 -303 -54 -41 -28 -73 -36 -73 -19 0 20
114 111 163 130 77 31 173 25 250 -13z m-646 -53 c23 -13 65 -50 95 -84 29
-34 65 -76 79 -93 l27 -30 288 -1 c340 0 328 -3 421 109 41 49 77 81 110 97
l48 24 1333 3 1333 2 -7 -52 c-3 -30 -13 -59 -22 -65 -12 -10 -297 -13 -1345
-13 l-1330 0 -67 -70 c-106 -110 -102 -110 -450 -110 -165 0 -310 4 -330 10
-23 7 -57 35 -106 87 l-71 78 -1337 3 c-1185 2 -1337 0 -1342 -13 -14 -36 -24
-9 -24 65 l0 80 1328 -2 1327 -3 42 -22z m-2840 -59 c-3 -3 -12 -4 -19 -1 -8
3 -5 6 6 6 11 1 17 -2 13 -5z m3310 0 c-3 -3 -12 -4 -19 -1 -8 3 -5 6 6 6 11
1 17 -2 13 -5z m206 -11 c-7 -2 -21 -2 -30 0 -10 3 -4 5 12 5 17 0 24 -2 18
-5z"/>
<path d="M6590 7481 l0 -179 43 -5 c23 -3 250 -6 505 -7 l462 -1 0 185 0 186
-505 0 -505 0 0 -179z m900 -1 l0 -80 -395 0 -395 0 0 75 0 75 343 3 c188 1
366 3 395 5 l52 2 0 -80z"/>
<path d="M2591 7251 c-21 -13 -4 -31 30 -31 31 0 41 23 13 34 -20 8 -26 7 -43
-3z m44 -11 c3 -5 -3 -10 -15 -10 -12 0 -18 5 -15 10 3 6 10 10 15 10 5 0 12
-4 15 -10z"/>
<path d="M3158 7183 c23 -2 61 -2 85 0 23 2 4 4 -43 4 -47 0 -66 -2 -42 -4z"/>
<path d="M3387 7183 c18 -2 50 -2 70 0 21 2 7 4 -32 4 -38 0 -55 -2 -38 -4z"/>
<path d="M3538 7183 c12 -2 32 -2 45 0 12 2 2 4 -23 4 -25 0 -35 -2 -22 -4z"/>
<path d="M2838 6889 c-21 -12 -23 -40 -6 -57 9 -9 153 -12 588 -12 564 0 577
0 595 20 17 19 17 21 0 40 -18 20 -31 20 -589 20 -369 -1 -577 -4 -588 -11z"/>
<path d="M3096 6670 c-238 -4 -270 -7 -280 -22 -8 -13 -6 -22 8 -37 18 -20 29
-21 302 -21 244 0 285 2 298 16 30 29 14 59 -34 66 -14 2 -146 1 -294 -2z"/>
<path d="M3530 6672 c-50 -7 -69 -51 -31 -72 30 -15 733 -14 749 2 16 16 15
43 -1 56 -12 11 -654 22 -717 14z"/>
<path d="M2819 6418 c-10 -18 -8 -24 11 -40 20 -17 48 -18 341 -18 327 0 369
5 369 40 0 39 -13 40 -367 40 -342 0 -342 0 -354 -22z"/>
<path d="M5060 7255 c0 -8 -6 -15 -12 -15 -7 0 -5 -5 5 -11 34 -20 63 11 32
33 -16 12 -25 9 -25 -7z"/>
<path d="M5395 7250 c-4 -6 5 -10 20 -10 15 0 24 4 20 10 -3 6 -12 10 -20 10
-8 0 -17 -4 -20 -10z"/>
<path d="M5308 7243 c12 -2 30 -2 40 0 9 3 -1 5 -23 4 -22 0 -30 -2 -17 -4z"/>
<path d="M5168 7233 c23 -2 59 -2 80 0 20 2 1 4 -43 4 -44 0 -61 -2 -37 -4z"/>
<path d="M5558 7223 c23 -2 61 -2 85 0 23 2 4 4 -43 4 -47 0 -66 -2 -42 -4z"/>
<path d="M6500 6801 c-27 -8 -35 -28 -20 -51 8 -12 45 -15 217 -18 114 -1 249
1 298 5 87 8 90 9 90 33 0 17 -7 26 -25 31 -33 9 -527 9 -560 0z"/>
<path d="M6609 6554 c-9 -11 -10 -20 -2 -32 9 -15 39 -18 229 -22 259 -6 271
-5 279 21 15 46 -2 49 -255 49 -205 0 -239 -2 -251 -16z"/>
<path d="M6716 6291 c-71 -5 -91 -10 -100 -24 -9 -15 -7 -21 8 -33 17 -12 91
-14 446 -14 451 0 467 2 458 46 -3 18 -16 19 -193 25 -227 8 -496 7 -619 0z"/>
<path d="M8595 7031 c-92 -25 -175 -88 -222 -169 -36 -61 -44 -180 -18 -250
26 -67 102 -144 177 -177 54 -24 70 -27 137 -23 86 5 138 27 202 85 66 60 93
123 94 218 0 67 -4 89 -27 136 -16 31 -43 71 -61 90 -67 68 -202 112 -282 90z
m121 -106 c57 -17 107 -61 123 -108 l11 -32 -20 24 c-11 13 -20 18 -20 13 0
-6 4 -14 10 -17 14 -8 1 -165 -16 -192 -8 -13 -21 -23 -28 -23 -8 0 -16 -7
-20 -15 -3 -8 -13 -15 -21 -15 -9 0 -14 -4 -11 -8 3 -5 -2 -18 -10 -30 -32
-46 -159 -16 -222 52 -97 106 -73 265 51 336 59 34 99 37 173 15z"/>
<path d="M5241 6661 c-6 -11 -8 -27 -5 -36 5 -13 25 -15 138 -13 l131 3 0 30
0 30 -127 3 c-117 2 -128 1 -137 -17z"/>
<path d="M5261 6548 c-17 -6 -22 -15 -19 -35 l3 -28 130 0 130 0 3 27 c2 19
-3 30 -18 38 -24 13 -194 11 -229 -2z"/>
<path d="M6294 5990 c0 -173 2 -244 3 -157 2 86 2 228 0 315 -1 86 -3 15 -3
-158z"/>
<path d="M6301 5634 c0 -11 3 -14 6 -6 3 7 2 16 -1 19 -3 4 -6 -2 -5 -13z"/>
<path d="M6302 5323 c0 -137 3 -284 7 -328 l8 -80 2 103 c1 112 18 140 24 40
2 -35 4 30 5 143 1 113 5 226 8 250 4 31 1 50 -10 64 -13 18 -14 3 -11 -150 3
-126 2 -160 -6 -130 -13 53 -13 49 -4 133 6 53 5 72 -4 72 -9 0 -11 19 -9 65
2 36 1 65 -3 65 -3 0 -6 -111 -7 -247z"/>
<path d="M3977 3293 c-9 -8 -9 -46 -1 -67 5 -13 24 -16 105 -16 88 0 99 2 109
20 6 11 8 31 4 45 -6 25 -7 25 -108 25 -57 0 -106 -3 -109 -7z"/>
<path d="M3255 5430 c-12 -39 11 -50 100 -50 116 0 145 7 145 35 0 31 -15 35
-135 35 -96 0 -104 -2 -110 -20z"/>
<path d="M3273 5323 c-7 -2 -13 -18 -13 -34 l0 -29 109 0 c86 0 113 3 125 16
38 38 3 54 -116 53 -51 0 -99 -3 -105 -6z"/>
<path d="M4810 4902 c-30 -2 -60 -7 -66 -13 -6 -5 -25 -6 -41 -3 -18 4 -33 1
-37 -5 -5 -8 38 -11 148 -11 101 0 156 4 156 10 0 19 -65 27 -160 22z"/>
<path d="M6310 4767 c0 -26 4 -47 9 -47 8 0 3 79 -5 89 -2 2 -4 -17 -4 -42z"/>
<path d="M6343 4770 c0 -25 2 -35 4 -22 2 12 2 32 0 45 -2 12 -4 2 -4 -23z"/>
<path d="M4683 3300 c-16 -7 -23 -18 -23 -38 0 -42 17 -52 87 -52 51 0 64 3
73 19 16 30 12 59 -9 71 -24 12 -97 12 -128 0z"/>
<path d="M6311 4484 c0 -11 3 -14 6 -6 3 7 2 16 -1 19 -3 4 -6 -2 -5 -13z"/>
<path d="M5970 3275 c-6 -15 -10 -30 -10 -35 0 -21 44 -30 139 -30 101 0 101
0 107 27 13 50 -3 58 -120 61 l-106 3 -10 -26z"/>
<path d="M2613 3853 c-7 -2 -13 -17 -13 -33 0 -20 6 -29 23 -34 12 -3 133 -6
268 -6 226 0 247 2 262 18 21 23 21 27 1 46 -13 14 -51 16 -272 15 -141 0
-263 -3 -269 -6z"/>
<path d="M3402 3848 c-6 -6 -12 -19 -12 -28 0 -32 23 -40 115 -40 80 0 94 3
111 21 14 15 16 24 8 37 -9 14 -30 18 -110 20 -69 2 -103 -1 -112 -10z"/>
<path d="M6612 3848 c-7 -7 -12 -19 -12 -28 0 -32 23 -40 112 -40 86 0 89 1
98 26 17 44 -1 54 -99 54 -54 0 -92 -5 -99 -12z"/>
<path d="M6962 3848 c-16 -16 -15 -43 2 -57 9 -8 105 -11 331 -9 312 3 318 3
332 24 12 19 12 24 -2 38 -14 14 -55 16 -334 16 -233 0 -320 -3 -329 -12z"/>
<path d="M6727 3413 c-3 -5 -6 -78 -8 -163 l-4 -155 28 -3 27 -3 0 159 c0 137
-2 161 -16 166 -20 8 -22 8 -27 -1z"/>
<path d="M1433 3043 c15 -2 39 -2 55 0 15 2 2 4 -28 4 -30 0 -43 -2 -27 -4z"/>
<path d="M1648 3043 c23 -2 59 -2 80 0 20 2 1 4 -43 4 -44 0 -61 -2 -37 -4z"/>
<path d="M1888 3043 c12 -2 30 -2 40 0 9 3 -1 5 -23 4 -22 0 -30 -2 -17 -4z"/>
<path d="M2058 3043 c7 -3 16 -2 19 1 4 3 -2 6 -13 5 -11 0 -14 -3 -6 -6z"/>
<path d="M1574 2862 c-28 -18 -34 -106 -10 -131 20 -19 67 -17 83 5 20 27 17
98 -5 117 -19 18 -49 22 -68 9z"/>
<path d="M1787 2784 c-4 -4 -7 -20 -7 -35 0 -29 19 -39 76 -39 41 0 67 20 62
51 -3 22 -8 24 -63 27 -34 2 -64 0 -68 -4z"/>
<path d="M8576 2848 c-36 -51 -9 -128 44 -128 39 0 59 39 50 94 -11 58 -64 78
-94 34z"/>
<path d="M8313 2793 c-19 -7 -16 -70 3 -77 22 -8 107 -7 120 2 17 11 22 35 13
60 -7 19 -15 22 -66 21 -32 0 -64 -3 -70 -6z"/>
<path d="M8823 2685 c0 -8 4 -15 9 -15 4 0 8 4 8 9 0 5 8 12 18 14 11 3 8 5
-9 6 -17 1 -26 -4 -26 -14z"/>
<path d="M4720 1906 c0 -2 8 -10 18 -17 15 -13 16 -12 3 4 -13 16 -21 21 -21
13z"/>
<path d="M1217 6833 c-11 -11 -8 -48 6 -62 16 -16 13 -391 -4 -422 -25 -48
-21 -49 299 -49 248 0 302 2 311 14 9 11 9 20 2 35 -16 29 -15 405 1 431 10
15 10 25 2 38 -10 15 -38 17 -311 20 -165 1 -302 -1 -306 -5z m483 -97 c0 -45
-4 -46 -180 -46 l-168 0 -4 25 c-3 13 -3 27 0 30 3 3 83 5 179 5 143 0 173 -2
173 -14z m-6 -136 c3 -3 3 -15 0 -25 -4 -18 -13 -20 -82 -19 l-77 1 65 -7 c50
-5 34 -7 -75 -7 -99 0 -123 2 -80 7 l60 7 -77 1 c-68 2 -78 4 -78 20 0 10 3
22 7 26 9 8 328 4 337 -4z m-2 -165 c-2 -11 -6 -22 -8 -24 -7 -7 -246 -4 -291
4 -33 5 -43 11 -43 26 0 19 8 19 173 17 166 -3 172 -4 169 -23z"/>
<path d="M1468 6423 c12 -2 30 -2 40 0 9 3 -1 5 -23 4 -22 0 -30 -2 -17 -4z"/>
<path d="M1562 5897 c-6 -7 -16 -35 -22 -62 -15 -61 -34 -79 -102 -95 -66 -15
-98 -35 -98 -60 0 -24 19 -35 92 -50 74 -15 96 -34 107 -92 9 -54 25 -78 50
-78 27 0 40 20 53 82 13 64 1 54 132 100 86 29 70 68 -40 99 -75 21 -80 26
-89 84 -12 72 -53 108 -83 72z"/>
<path d="M8477 5272 c-15 -16 -17 -47 -17 -220 l0 -200 33 -43 c17 -23 48 -51
68 -62 35 -20 37 -20 60 -4 13 10 39 28 57 41 l32 24 50 -52 c27 -29 61 -58
74 -66 23 -12 29 -10 65 14 21 15 69 58 105 96 l66 68 0 146 c0 144 0 147 -26
173 -22 22 -32 25 -67 20 -23 -3 -77 -3 -119 0 -77 6 -78 6 -78 34 0 42 -24
49 -163 49 -107 0 -126 -2 -140 -18z m203 -156 c0 -81 -4 -88 -65 -126 -30
-19 -35 -26 -31 -49 4 -14 2 -39 -3 -56 -7 -22 -9 0 -10 86 -1 64 -4 137 -7
162 l-7 46 39 4 c92 9 84 16 84 -67z m282 -22 c3 -3 4 -14 1 -25 -4 -14 -22
-24 -64 -36 -48 -13 -59 -20 -59 -38 0 -11 -4 -25 -9 -30 -13 -15 -25 -115
-13 -115 5 0 13 -8 16 -17 5 -13 0 -11 -18 7 -24 23 -25 32 -26 135 -1 61 -1
113 -1 118 1 8 165 10 173 1z"/>
<path d="M1380 5107 c-82 -16 -134 -44 -186 -99 -64 -66 -77 -99 -84 -218 -4
-70 -12 -115 -23 -135 -14 -25 -17 -60 -17 -210 0 -161 2 -183 20 -212 37 -62
46 -63 393 -63 307 0 315 0 342 22 48 37 55 71 55 260 0 150 -3 178 -19 208
-12 24 -20 64 -23 130 -4 76 -10 105 -31 146 -33 65 -114 138 -175 158 -67 22
-177 27 -252 13z m199 -102 c108 -38 141 -91 141 -225 0 -80 -2 -90 -18 -90
-30 0 -42 21 -42 72 0 94 -49 158 -138 177 -53 11 -121 0 -161 -26 -36 -23
-70 -65 -71 -88 l-1 -20 -9 20 c-6 14 -9 -5 -9 -57 l-1 -78 -35 0 -34 0 6 83
c8 112 43 175 118 215 62 33 186 41 254 17z m-45 -186 c22 -18 26 -28 26 -75
l0 -54 -90 0 c-87 0 -90 1 -90 23 1 45 18 110 31 118 26 17 95 10 123 -12z
m198 -226 c2 -5 2 -68 0 -141 -3 -125 -5 -134 -22 -129 -11 3 -21 -1 -25 -10
-4 -13 -22 -15 -105 -11 -59 3 -105 10 -115 18 -8 7 -15 9 -15 4 0 -5 -52 -7
-115 -4 -63 3 -115 3 -115 0 0 -4 5 -11 12 -18 17 -17 -4 -15 -30 4 -21 14
-22 23 -22 129 0 62 4 125 10 139 l10 26 264 0 c146 0 266 -3 268 -7z m-447
-292 c3 -5 0 -13 -6 -17 -7 -4 -9 -3 -5 4 3 5 0 13 -6 15 -9 4 -10 6 -1 6 6 1
14 -3 18 -8z"/>
<path d="M1448 4519 c-12 -7 -18 -22 -18 -47 0 -43 14 -62 45 -62 51 0 74 75
33 104 -26 18 -36 19 -60 5z"/>
<path d="M8733 4113 c-10 -16 -22 -31 -28 -35 -5 -4 -69 -8 -142 -8 -72 0
-138 -3 -147 -6 -10 -4 -16 -18 -16 -35 0 -41 27 -49 178 -49 125 0 127 0 147
-27 17 -21 27 -25 48 -19 14 3 29 15 32 26 5 17 15 20 70 20 78 0 112 21 101
63 -6 26 -9 27 -80 27 -74 0 -74 0 -95 35 -25 42 -45 44 -68 8z"/>
</g>

</svg>
